<svg class="svg-icon" style="width: 1em;height: 1em;vertical-align: middle;fill: currentColor;overflow: hidden;" viewBox="0 0 1024 1024" version="1.1" xmlns="http://www.w3.org/2000/svg"><path d="M115.98848 545.67936L199.68 496.64h623.36l84.9408 49.01888a5.12 5.12 0 0 1-2.56 9.55904H118.5792a5.12 5.12 0 0 1-2.59072-9.53856z" fill="#FF7875" /><path d="M261.12 117.76h321.28L824.32 359.22944V839.68c0 33.93024-27.50976 61.44-61.44 61.44H261.12c-33.93024 0-61.44-27.50976-61.44-61.44V179.2c0-33.93024 27.50976-61.44 61.44-61.44z" fill="#FF7875" /><path d="M260.01408 143.36h316.86144l222.9504 225.6896V839.68a35.84 35.84 0 0 1-35.84 35.84H260.01408a35.84 35.84 0 0 1-35.84-35.84V179.2a35.84 35.84 0 0 1 35.84-35.84z" fill="#FFFFFF" /><path d="M820.48 384.78336h-193.62816c-40.97536 0-74.29632-32.78848-75.15648-73.56416l-0.01536-1.6128V117.76h25.6v191.8464c0 26.9056 21.43744 48.80896 48.16384 49.55648l1.408 0.02048h193.62816v25.6z" fill="#FF7875" /><path d="M102.4 542.72m25.6 0l768 0q25.6 0 25.6 25.6l0 163.84q0 25.6-25.6 25.6l-768 0q-25.6 0-25.6-25.6l0-163.84q0-25.6 25.6-25.6Z" fill="#FF7875" /><path d="M430.00832 701.44v-39.1168h6.784c5.51936 0 9.984-0.768 13.40928-2.28352 3.42016-1.52064 5.77024-3.70176 7.05024-6.53824 1.28-2.8416 1.92-7.36256 1.92-13.56288v-8.45824c0-6.08256-0.3328-10.5728-0.99328-13.4656a16.06656 16.06656 0 0 0-3.77856-7.41376c-1.85856-2.04288-4.63872-3.59936-8.34048-4.67968-3.70176-1.08032-8.99072-1.62304-15.872-1.62304h-25.43616V701.44h25.25696z m1.86368-55.74144a34.2016 34.2016 0 0 1-1.86368-0.05632v-24.72448c3.28192 0 5.44256 0.50176 6.48192 1.50016 1.03936 1.00352 1.5616 3.16416 1.5616 6.48192v7.98208c0 3.59936-0.45056 5.96992-1.35168 7.10656-0.90112 1.14176-2.5088 1.71008-4.82816 1.71008zM513.64864 701.44c6.0416 0 10.56256-0.32768 13.56288-0.98816 3.00032-0.6656 5.51936-1.82272 7.55712-3.4816 2.04288-1.65888 3.47136-3.95776 4.29056-6.90176 0.8192-2.93888 1.2288-8.77056 1.2288-17.48992v-34.01728c0-9.20064-0.27648-15.37024-0.83968-18.5088a17.47456 17.47456 0 0 0-4.1984-8.5504c-2.23744-2.56-5.50912-4.4032-9.80992-5.52448-4.3008-1.11616-12.54912-1.67936-24.75008-1.67936H481.792V701.44h31.85664z m-6.59968-16.61952v-63.8976c2.7648 0 4.63872 0.28672 5.64224 0.8704 0.9984 0.57856 1.6384 1.4848 1.92 2.72896 0.27648 1.23904 0.41984 4.06016 0.41984 8.45824V670.72c0 6.48192-0.41984 10.44992-1.25952 11.90912-0.83968 1.4592-3.08224 2.19136-6.72256 2.19136zM590.336 701.44v-40.80128h15.60064v-18.4832h-15.60064v-18.41664h17.52064v-19.44064h-42.78272V701.44h25.26208z" fill="#FFFFFF" /></svg>